<svg xmlns="http://www.w3.org/2000/svg" viewBox="0 0 1200 600">
  <defs>
    <linearGradient id="heroBg" x1="0%" y1="0%" x2="100%" y2="100%">
      <stop offset="0%" style="stop-color:#f8f5f0"/>
      <stop offset="50%" style="stop-color:#f0ebe3"/>
      <stop offset="100%" style="stop-color:#e8e0d3"/>
    </linearGradient>
  </defs>
  <rect width="1200" height="600" fill="url(#heroBg)"/>
  <ellipse cx="200" cy="500" rx="180" ry="40" fill="#d4c8b8" opacity="0.3"/>
  <ellipse cx="700" cy="520" rx="250" ry="50" fill="#d4c8b8" opacity="0.2"/>
  <!-- Dog silhouette left -->
  <g transform="translate(100, 150)">
    <ellipse cx="60" cy="120" rx="55" ry="40" fill="#c4a882"/>
    <circle cx="100" cy="80" r="35" fill="#c4a882"/>
    <ellipse cx="30" cy="100" rx="25" ry="18" fill="#b89872"/>
    <ellipse cx="110" cy="55" rx="15" ry="10" fill="#b89872"/>
    <circle cx="90" cy="75" r="4" fill="#3a3028"/>
    <circle cx="110" cy="75" r="4" fill="#3a3028"/>
    <ellipse cx="100" cy="88" rx="6" ry="4" fill="#5a4a38"/>
  </g>
  <!-- Cat silhouette right -->
  <g transform="translate(850, 140)">
    <ellipse cx="60" cy="130" rx="50" ry="35" fill="#8a7a6a"/>
    <circle cx="75" cy="75" r="30" fill="#8a7a6a"/>
    <polygon points="75,50 65,30 70,50" fill="#8a7a6a"/>
    <polygon points="75,50 80,30 85,50" fill="#8a7a6a"/>
    <ellipse cx="95" cy="60" rx="12" ry="8" fill="#6a5a4a"/>
    <circle cx="70" cy="68" r="3" fill="#2a2a28"/>
    <circle cx="83" cy="68" r="3" fill="#2a2a28"/>
    <ellipse cx="90" cy="145" rx="12" ry="8" fill="#6a5a4a"/>
  </g>
  <!-- Scattered treat decorations -->
  <g opacity="0.4">
    <rect x="450" y="400" width="30" height="8" rx="4" fill="#d4a882" transform="rotate(-15 465 404)"/>
    <rect x="550" y="420" width="25" height="7" rx="3" fill="#7ab87a" transform="rotate(10 562 423)"/>
    <rect x="620" y="390" width="28" height="8" rx="4" fill="#d49494" transform="rotate(-25 634 394)"/>
    <rect x="500" y="430" width="22" height="6" rx="3" fill="#8ab8d4" transform="rotate(20 511 433)"/>
  </g>
  <!-- Leaf decoration -->
  <g opacity="0.25">
    <path d="M380 380 Q400 340 430 360 Q410 350 380 380Z" fill="#7ab87a"/>
    <path d="M750 360 Q770 330 800 340 Q780 335 750 360Z" fill="#7ab87a"/>
  </g>
</svg>
